<mxfile host="app.diagrams.net" agent="Mozilla/5.0 (Windows NT 10.0; Win64; x64) AppleWebKit/537.36 (KHTML, like Gecko) Chrome/138.0.0.0 Safari/537.36" version="28.1.0">
  <diagram name="Page-1" id="qp8dsEZK2zRnIel2osCx">
    <mxGraphModel dx="1426" dy="751" grid="1" gridSize="10" guides="1" tooltips="1" connect="1" arrows="1" fold="1" page="1" pageScale="1" pageWidth="827" pageHeight="1169" math="0" shadow="0">
      <root>
        <mxCell id="0" />
        <mxCell id="1" parent="0" />
        <mxCell id="gxW0V7j5sj3q8Cg6t1EV-68" style="edgeStyle=none;rounded=0;orthogonalLoop=1;jettySize=auto;html=1;exitX=1;exitY=0.5;exitDx=0;exitDy=0;entryX=0;entryY=0.5;entryDx=0;entryDy=0;" edge="1" parent="1" source="gxW0V7j5sj3q8Cg6t1EV-1" target="gxW0V7j5sj3q8Cg6t1EV-4">
          <mxGeometry relative="1" as="geometry" />
        </mxCell>
        <mxCell id="gxW0V7j5sj3q8Cg6t1EV-71" style="edgeStyle=none;rounded=0;orthogonalLoop=1;jettySize=auto;html=1;exitX=1;exitY=0.5;exitDx=0;exitDy=0;entryX=0;entryY=0.5;entryDx=0;entryDy=0;" edge="1" parent="1" source="gxW0V7j5sj3q8Cg6t1EV-1" target="gxW0V7j5sj3q8Cg6t1EV-6">
          <mxGeometry relative="1" as="geometry" />
        </mxCell>
        <mxCell id="gxW0V7j5sj3q8Cg6t1EV-77" style="edgeStyle=none;rounded=0;orthogonalLoop=1;jettySize=auto;html=1;exitX=1;exitY=0.5;exitDx=0;exitDy=0;entryX=0;entryY=0.5;entryDx=0;entryDy=0;" edge="1" parent="1" source="gxW0V7j5sj3q8Cg6t1EV-1" target="gxW0V7j5sj3q8Cg6t1EV-5">
          <mxGeometry relative="1" as="geometry" />
        </mxCell>
        <mxCell id="gxW0V7j5sj3q8Cg6t1EV-79" style="edgeStyle=none;rounded=0;orthogonalLoop=1;jettySize=auto;html=1;exitX=1;exitY=0.5;exitDx=0;exitDy=0;entryX=0;entryY=0.5;entryDx=0;entryDy=0;" edge="1" parent="1" source="gxW0V7j5sj3q8Cg6t1EV-1" target="gxW0V7j5sj3q8Cg6t1EV-7">
          <mxGeometry relative="1" as="geometry" />
        </mxCell>
        <mxCell id="gxW0V7j5sj3q8Cg6t1EV-1" value="" style="ellipse;whiteSpace=wrap;html=1;aspect=fixed;fillColor=#dae8fc;strokeColor=#6c8ebf;shadow=1;" vertex="1" parent="1">
          <mxGeometry x="80" y="120" width="80" height="80" as="geometry" />
        </mxCell>
        <mxCell id="gxW0V7j5sj3q8Cg6t1EV-83" style="edgeStyle=none;rounded=0;orthogonalLoop=1;jettySize=auto;html=1;exitX=1;exitY=0.5;exitDx=0;exitDy=0;entryX=0;entryY=0.5;entryDx=0;entryDy=0;" edge="1" parent="1" source="gxW0V7j5sj3q8Cg6t1EV-4" target="gxW0V7j5sj3q8Cg6t1EV-10">
          <mxGeometry relative="1" as="geometry" />
        </mxCell>
        <mxCell id="gxW0V7j5sj3q8Cg6t1EV-86" style="edgeStyle=none;rounded=0;orthogonalLoop=1;jettySize=auto;html=1;exitX=1;exitY=0.5;exitDx=0;exitDy=0;entryX=0;entryY=0.5;entryDx=0;entryDy=0;" edge="1" parent="1" source="gxW0V7j5sj3q8Cg6t1EV-4" target="gxW0V7j5sj3q8Cg6t1EV-12">
          <mxGeometry relative="1" as="geometry" />
        </mxCell>
        <mxCell id="gxW0V7j5sj3q8Cg6t1EV-92" style="edgeStyle=none;rounded=0;orthogonalLoop=1;jettySize=auto;html=1;exitX=1;exitY=0.5;exitDx=0;exitDy=0;entryX=0;entryY=0.5;entryDx=0;entryDy=0;" edge="1" parent="1" source="gxW0V7j5sj3q8Cg6t1EV-4" target="gxW0V7j5sj3q8Cg6t1EV-11">
          <mxGeometry relative="1" as="geometry" />
        </mxCell>
        <mxCell id="gxW0V7j5sj3q8Cg6t1EV-95" style="edgeStyle=none;rounded=0;orthogonalLoop=1;jettySize=auto;html=1;exitX=1;exitY=0.5;exitDx=0;exitDy=0;entryX=0;entryY=0.5;entryDx=0;entryDy=0;" edge="1" parent="1" source="gxW0V7j5sj3q8Cg6t1EV-4" target="gxW0V7j5sj3q8Cg6t1EV-13">
          <mxGeometry relative="1" as="geometry" />
        </mxCell>
        <mxCell id="gxW0V7j5sj3q8Cg6t1EV-4" value="" style="ellipse;whiteSpace=wrap;html=1;aspect=fixed;fillColor=#d5e8d4;strokeColor=#82b366;shadow=1;" vertex="1" parent="1">
          <mxGeometry x="200" y="40" width="80" height="80" as="geometry" />
        </mxCell>
        <mxCell id="gxW0V7j5sj3q8Cg6t1EV-84" style="edgeStyle=none;rounded=0;orthogonalLoop=1;jettySize=auto;html=1;exitX=1;exitY=0.5;exitDx=0;exitDy=0;entryX=0;entryY=0.5;entryDx=0;entryDy=0;" edge="1" parent="1" source="gxW0V7j5sj3q8Cg6t1EV-5" target="gxW0V7j5sj3q8Cg6t1EV-11">
          <mxGeometry relative="1" as="geometry" />
        </mxCell>
        <mxCell id="gxW0V7j5sj3q8Cg6t1EV-88" style="edgeStyle=none;rounded=0;orthogonalLoop=1;jettySize=auto;html=1;exitX=1;exitY=0.5;exitDx=0;exitDy=0;entryX=0;entryY=0.5;entryDx=0;entryDy=0;" edge="1" parent="1" source="gxW0V7j5sj3q8Cg6t1EV-5" target="gxW0V7j5sj3q8Cg6t1EV-13">
          <mxGeometry relative="1" as="geometry" />
        </mxCell>
        <mxCell id="gxW0V7j5sj3q8Cg6t1EV-90" style="edgeStyle=none;rounded=0;orthogonalLoop=1;jettySize=auto;html=1;exitX=1;exitY=0.5;exitDx=0;exitDy=0;entryX=0;entryY=0.5;entryDx=0;entryDy=0;" edge="1" parent="1" source="gxW0V7j5sj3q8Cg6t1EV-5" target="gxW0V7j5sj3q8Cg6t1EV-12">
          <mxGeometry relative="1" as="geometry" />
        </mxCell>
        <mxCell id="gxW0V7j5sj3q8Cg6t1EV-97" style="edgeStyle=none;rounded=0;orthogonalLoop=1;jettySize=auto;html=1;exitX=1;exitY=0.5;exitDx=0;exitDy=0;entryX=0;entryY=0.5;entryDx=0;entryDy=0;" edge="1" parent="1" source="gxW0V7j5sj3q8Cg6t1EV-5" target="gxW0V7j5sj3q8Cg6t1EV-10">
          <mxGeometry relative="1" as="geometry" />
        </mxCell>
        <mxCell id="gxW0V7j5sj3q8Cg6t1EV-5" value="" style="ellipse;whiteSpace=wrap;html=1;aspect=fixed;fillColor=#d5e8d4;strokeColor=#82b366;shadow=1;" vertex="1" parent="1">
          <mxGeometry x="200" y="320" width="80" height="80" as="geometry" />
        </mxCell>
        <mxCell id="gxW0V7j5sj3q8Cg6t1EV-82" style="edgeStyle=none;rounded=0;orthogonalLoop=1;jettySize=auto;html=1;exitX=1;exitY=0.5;exitDx=0;exitDy=0;entryX=0;entryY=0.5;entryDx=0;entryDy=0;" edge="1" parent="1" source="gxW0V7j5sj3q8Cg6t1EV-6" target="gxW0V7j5sj3q8Cg6t1EV-12">
          <mxGeometry relative="1" as="geometry" />
        </mxCell>
        <mxCell id="gxW0V7j5sj3q8Cg6t1EV-87" style="edgeStyle=none;rounded=0;orthogonalLoop=1;jettySize=auto;html=1;exitX=1;exitY=0.5;exitDx=0;exitDy=0;entryX=0;entryY=0.5;entryDx=0;entryDy=0;" edge="1" parent="1" source="gxW0V7j5sj3q8Cg6t1EV-6" target="gxW0V7j5sj3q8Cg6t1EV-11">
          <mxGeometry relative="1" as="geometry" />
        </mxCell>
        <mxCell id="gxW0V7j5sj3q8Cg6t1EV-91" style="edgeStyle=none;rounded=0;orthogonalLoop=1;jettySize=auto;html=1;exitX=1;exitY=0.5;exitDx=0;exitDy=0;entryX=0;entryY=0.5;entryDx=0;entryDy=0;" edge="1" parent="1" source="gxW0V7j5sj3q8Cg6t1EV-6" target="gxW0V7j5sj3q8Cg6t1EV-10">
          <mxGeometry relative="1" as="geometry" />
        </mxCell>
        <mxCell id="gxW0V7j5sj3q8Cg6t1EV-93" style="edgeStyle=none;rounded=0;orthogonalLoop=1;jettySize=auto;html=1;exitX=1;exitY=0.5;exitDx=0;exitDy=0;entryX=0;entryY=0.5;entryDx=0;entryDy=0;" edge="1" parent="1" source="gxW0V7j5sj3q8Cg6t1EV-6" target="gxW0V7j5sj3q8Cg6t1EV-13">
          <mxGeometry relative="1" as="geometry" />
        </mxCell>
        <mxCell id="gxW0V7j5sj3q8Cg6t1EV-6" value="" style="ellipse;whiteSpace=wrap;html=1;aspect=fixed;fillColor=#d5e8d4;strokeColor=#82b366;shadow=1;" vertex="1" parent="1">
          <mxGeometry x="200" y="180" width="80" height="80" as="geometry" />
        </mxCell>
        <mxCell id="gxW0V7j5sj3q8Cg6t1EV-85" style="edgeStyle=none;rounded=0;orthogonalLoop=1;jettySize=auto;html=1;exitX=1;exitY=0.5;exitDx=0;exitDy=0;" edge="1" parent="1" source="gxW0V7j5sj3q8Cg6t1EV-7" target="gxW0V7j5sj3q8Cg6t1EV-13">
          <mxGeometry relative="1" as="geometry" />
        </mxCell>
        <mxCell id="gxW0V7j5sj3q8Cg6t1EV-89" style="edgeStyle=none;rounded=0;orthogonalLoop=1;jettySize=auto;html=1;exitX=1;exitY=0.5;exitDx=0;exitDy=0;entryX=0;entryY=0.5;entryDx=0;entryDy=0;" edge="1" parent="1" source="gxW0V7j5sj3q8Cg6t1EV-7" target="gxW0V7j5sj3q8Cg6t1EV-11">
          <mxGeometry relative="1" as="geometry" />
        </mxCell>
        <mxCell id="gxW0V7j5sj3q8Cg6t1EV-94" style="edgeStyle=none;rounded=0;orthogonalLoop=1;jettySize=auto;html=1;exitX=1;exitY=0.5;exitDx=0;exitDy=0;entryX=0;entryY=0.5;entryDx=0;entryDy=0;" edge="1" parent="1" source="gxW0V7j5sj3q8Cg6t1EV-7" target="gxW0V7j5sj3q8Cg6t1EV-12">
          <mxGeometry relative="1" as="geometry" />
        </mxCell>
        <mxCell id="gxW0V7j5sj3q8Cg6t1EV-98" style="edgeStyle=none;rounded=0;orthogonalLoop=1;jettySize=auto;html=1;exitX=1;exitY=0.5;exitDx=0;exitDy=0;entryX=0;entryY=0.5;entryDx=0;entryDy=0;" edge="1" parent="1" source="gxW0V7j5sj3q8Cg6t1EV-7" target="gxW0V7j5sj3q8Cg6t1EV-10">
          <mxGeometry relative="1" as="geometry" />
        </mxCell>
        <mxCell id="gxW0V7j5sj3q8Cg6t1EV-7" value="" style="ellipse;whiteSpace=wrap;html=1;aspect=fixed;fillColor=#d5e8d4;strokeColor=#82b366;shadow=1;" vertex="1" parent="1">
          <mxGeometry x="200" y="440" width="80" height="80" as="geometry" />
        </mxCell>
        <mxCell id="gxW0V7j5sj3q8Cg6t1EV-53" style="rounded=0;orthogonalLoop=1;jettySize=auto;html=1;exitX=1;exitY=0.5;exitDx=0;exitDy=0;entryX=0;entryY=0.5;entryDx=0;entryDy=0;" edge="1" parent="1" source="gxW0V7j5sj3q8Cg6t1EV-10" target="gxW0V7j5sj3q8Cg6t1EV-14">
          <mxGeometry relative="1" as="geometry" />
        </mxCell>
        <mxCell id="gxW0V7j5sj3q8Cg6t1EV-55" style="rounded=0;orthogonalLoop=1;jettySize=auto;html=1;exitX=1;exitY=0.5;exitDx=0;exitDy=0;entryX=0;entryY=0.5;entryDx=0;entryDy=0;" edge="1" parent="1" source="gxW0V7j5sj3q8Cg6t1EV-10" target="gxW0V7j5sj3q8Cg6t1EV-16">
          <mxGeometry relative="1" as="geometry" />
        </mxCell>
        <mxCell id="gxW0V7j5sj3q8Cg6t1EV-56" style="rounded=0;orthogonalLoop=1;jettySize=auto;html=1;exitX=1;exitY=0.5;exitDx=0;exitDy=0;entryX=0;entryY=0.5;entryDx=0;entryDy=0;" edge="1" parent="1" source="gxW0V7j5sj3q8Cg6t1EV-10" target="gxW0V7j5sj3q8Cg6t1EV-16">
          <mxGeometry relative="1" as="geometry" />
        </mxCell>
        <mxCell id="gxW0V7j5sj3q8Cg6t1EV-10" value="" style="ellipse;whiteSpace=wrap;html=1;aspect=fixed;fillColor=#d5e8d4;strokeColor=#82b366;shadow=1;" vertex="1" parent="1">
          <mxGeometry x="310" y="40" width="80" height="80" as="geometry" />
        </mxCell>
        <mxCell id="gxW0V7j5sj3q8Cg6t1EV-60" style="edgeStyle=none;rounded=0;orthogonalLoop=1;jettySize=auto;html=1;exitX=1;exitY=0.5;exitDx=0;exitDy=0;entryX=0;entryY=0.5;entryDx=0;entryDy=0;" edge="1" parent="1" source="gxW0V7j5sj3q8Cg6t1EV-11" target="gxW0V7j5sj3q8Cg6t1EV-15">
          <mxGeometry relative="1" as="geometry" />
        </mxCell>
        <mxCell id="gxW0V7j5sj3q8Cg6t1EV-61" style="edgeStyle=none;rounded=0;orthogonalLoop=1;jettySize=auto;html=1;exitX=1;exitY=0.5;exitDx=0;exitDy=0;entryX=0;entryY=0.5;entryDx=0;entryDy=0;" edge="1" parent="1" source="gxW0V7j5sj3q8Cg6t1EV-11" target="gxW0V7j5sj3q8Cg6t1EV-14">
          <mxGeometry relative="1" as="geometry" />
        </mxCell>
        <mxCell id="gxW0V7j5sj3q8Cg6t1EV-62" style="edgeStyle=none;rounded=0;orthogonalLoop=1;jettySize=auto;html=1;exitX=1;exitY=0.5;exitDx=0;exitDy=0;entryX=0;entryY=0.5;entryDx=0;entryDy=0;" edge="1" parent="1" source="gxW0V7j5sj3q8Cg6t1EV-11" target="gxW0V7j5sj3q8Cg6t1EV-16">
          <mxGeometry relative="1" as="geometry" />
        </mxCell>
        <mxCell id="gxW0V7j5sj3q8Cg6t1EV-11" value="" style="ellipse;whiteSpace=wrap;html=1;aspect=fixed;fillColor=#d5e8d4;strokeColor=#82b366;shadow=1;" vertex="1" parent="1">
          <mxGeometry x="310" y="320" width="80" height="80" as="geometry" />
        </mxCell>
        <mxCell id="gxW0V7j5sj3q8Cg6t1EV-57" style="edgeStyle=none;rounded=0;orthogonalLoop=1;jettySize=auto;html=1;exitX=1;exitY=0.5;exitDx=0;exitDy=0;entryX=0;entryY=0.5;entryDx=0;entryDy=0;" edge="1" parent="1" source="gxW0V7j5sj3q8Cg6t1EV-12" target="gxW0V7j5sj3q8Cg6t1EV-15">
          <mxGeometry relative="1" as="geometry" />
        </mxCell>
        <mxCell id="gxW0V7j5sj3q8Cg6t1EV-58" style="edgeStyle=none;rounded=0;orthogonalLoop=1;jettySize=auto;html=1;exitX=1;exitY=0.5;exitDx=0;exitDy=0;entryX=0;entryY=0.5;entryDx=0;entryDy=0;" edge="1" parent="1" source="gxW0V7j5sj3q8Cg6t1EV-12" target="gxW0V7j5sj3q8Cg6t1EV-16">
          <mxGeometry relative="1" as="geometry" />
        </mxCell>
        <mxCell id="gxW0V7j5sj3q8Cg6t1EV-59" style="edgeStyle=none;rounded=0;orthogonalLoop=1;jettySize=auto;html=1;exitX=1;exitY=0.5;exitDx=0;exitDy=0;entryX=0;entryY=0.5;entryDx=0;entryDy=0;" edge="1" parent="1" source="gxW0V7j5sj3q8Cg6t1EV-12" target="gxW0V7j5sj3q8Cg6t1EV-14">
          <mxGeometry relative="1" as="geometry" />
        </mxCell>
        <mxCell id="gxW0V7j5sj3q8Cg6t1EV-12" value="" style="ellipse;whiteSpace=wrap;html=1;aspect=fixed;fillColor=#d5e8d4;strokeColor=#82b366;shadow=1;" vertex="1" parent="1">
          <mxGeometry x="310" y="180" width="80" height="80" as="geometry" />
        </mxCell>
        <mxCell id="gxW0V7j5sj3q8Cg6t1EV-63" style="edgeStyle=none;rounded=0;orthogonalLoop=1;jettySize=auto;html=1;exitX=1;exitY=0.5;exitDx=0;exitDy=0;entryX=0;entryY=0.5;entryDx=0;entryDy=0;" edge="1" parent="1" source="gxW0V7j5sj3q8Cg6t1EV-13" target="gxW0V7j5sj3q8Cg6t1EV-16">
          <mxGeometry relative="1" as="geometry" />
        </mxCell>
        <mxCell id="gxW0V7j5sj3q8Cg6t1EV-64" style="edgeStyle=none;rounded=0;orthogonalLoop=1;jettySize=auto;html=1;exitX=1;exitY=0.5;exitDx=0;exitDy=0;entryX=0;entryY=0.5;entryDx=0;entryDy=0;" edge="1" parent="1" source="gxW0V7j5sj3q8Cg6t1EV-13" target="gxW0V7j5sj3q8Cg6t1EV-15">
          <mxGeometry relative="1" as="geometry" />
        </mxCell>
        <mxCell id="gxW0V7j5sj3q8Cg6t1EV-65" style="edgeStyle=none;rounded=0;orthogonalLoop=1;jettySize=auto;html=1;exitX=1;exitY=0.5;exitDx=0;exitDy=0;entryX=0;entryY=0.5;entryDx=0;entryDy=0;" edge="1" parent="1" source="gxW0V7j5sj3q8Cg6t1EV-13" target="gxW0V7j5sj3q8Cg6t1EV-14">
          <mxGeometry relative="1" as="geometry" />
        </mxCell>
        <mxCell id="gxW0V7j5sj3q8Cg6t1EV-13" value="" style="ellipse;whiteSpace=wrap;html=1;aspect=fixed;fillColor=#d5e8d4;strokeColor=#82b366;shadow=1;" vertex="1" parent="1">
          <mxGeometry x="310" y="440" width="80" height="80" as="geometry" />
        </mxCell>
        <mxCell id="gxW0V7j5sj3q8Cg6t1EV-14" value="" style="ellipse;whiteSpace=wrap;html=1;aspect=fixed;fillColor=#ffe6cc;strokeColor=#d79b00;shadow=1;" vertex="1" parent="1">
          <mxGeometry x="440" y="120" width="80" height="80" as="geometry" />
        </mxCell>
        <mxCell id="gxW0V7j5sj3q8Cg6t1EV-15" value="" style="ellipse;whiteSpace=wrap;html=1;aspect=fixed;fillColor=#ffe6cc;strokeColor=#d79b00;shadow=1;" vertex="1" parent="1">
          <mxGeometry x="440" y="240" width="80" height="80" as="geometry" />
        </mxCell>
        <mxCell id="gxW0V7j5sj3q8Cg6t1EV-16" value="" style="ellipse;whiteSpace=wrap;html=1;aspect=fixed;fillColor=#ffe6cc;strokeColor=#d79b00;shadow=1;" vertex="1" parent="1">
          <mxGeometry x="440" y="360" width="80" height="80" as="geometry" />
        </mxCell>
        <mxCell id="gxW0V7j5sj3q8Cg6t1EV-17" value="" style="shape=partialRectangle;whiteSpace=wrap;html=1;bottom=1;right=1;left=1;top=0;fillColor=none;routingCenterX=-0.5;shadow=1;strokeWidth=3;" vertex="1" parent="1">
          <mxGeometry x="200" y="520" width="200" height="30" as="geometry" />
        </mxCell>
        <mxCell id="gxW0V7j5sj3q8Cg6t1EV-18" value="" style="shape=partialRectangle;whiteSpace=wrap;html=1;bottom=1;right=1;left=1;top=0;fillColor=none;routingCenterX=-0.5;shadow=1;strokeWidth=3;" vertex="1" parent="1">
          <mxGeometry x="440" y="520" width="80" height="30" as="geometry" />
        </mxCell>
        <mxCell id="gxW0V7j5sj3q8Cg6t1EV-19" value="" style="shape=partialRectangle;whiteSpace=wrap;html=1;bottom=1;right=1;left=1;top=0;fillColor=none;routingCenterX=-0.5;shadow=1;strokeWidth=3;" vertex="1" parent="1">
          <mxGeometry x="80" y="520" width="80" height="30" as="geometry" />
        </mxCell>
        <mxCell id="gxW0V7j5sj3q8Cg6t1EV-21" value="&lt;font style=&quot;font-size: 17px;&quot;&gt;Input Layer&lt;/font&gt;" style="text;html=1;align=center;verticalAlign=middle;resizable=0;points=[];autosize=1;strokeColor=none;fillColor=none;shadow=1;" vertex="1" parent="1">
          <mxGeometry x="65" y="570" width="110" height="30" as="geometry" />
        </mxCell>
        <mxCell id="gxW0V7j5sj3q8Cg6t1EV-22" value="&lt;font style=&quot;font-size: 17px;&quot;&gt;Hidden Layers&lt;/font&gt;" style="text;html=1;align=center;verticalAlign=middle;resizable=0;points=[];autosize=1;strokeColor=none;fillColor=none;shadow=1;" vertex="1" parent="1">
          <mxGeometry x="240" y="570" width="130" height="30" as="geometry" />
        </mxCell>
        <mxCell id="gxW0V7j5sj3q8Cg6t1EV-23" value="&lt;font style=&quot;font-size: 17px;&quot;&gt;Output Layer&lt;/font&gt;" style="text;html=1;align=center;verticalAlign=middle;resizable=0;points=[];autosize=1;strokeColor=none;fillColor=none;shadow=1;" vertex="1" parent="1">
          <mxGeometry x="425" y="570" width="120" height="30" as="geometry" />
        </mxCell>
        <mxCell id="gxW0V7j5sj3q8Cg6t1EV-25" style="edgeStyle=orthogonalEdgeStyle;rounded=0;orthogonalLoop=1;jettySize=auto;html=1;exitX=0.5;exitY=1;exitDx=0;exitDy=0;entryX=0.473;entryY=0.167;entryDx=0;entryDy=0;entryPerimeter=0;shadow=1;strokeWidth=2;" edge="1" parent="1" source="gxW0V7j5sj3q8Cg6t1EV-19" target="gxW0V7j5sj3q8Cg6t1EV-21">
          <mxGeometry relative="1" as="geometry" />
        </mxCell>
        <mxCell id="gxW0V7j5sj3q8Cg6t1EV-28" style="edgeStyle=orthogonalEdgeStyle;rounded=0;orthogonalLoop=1;jettySize=auto;html=1;exitX=0.5;exitY=1;exitDx=0;exitDy=0;entryX=0.492;entryY=0.167;entryDx=0;entryDy=0;entryPerimeter=0;shadow=1;strokeWidth=2;" edge="1" parent="1" source="gxW0V7j5sj3q8Cg6t1EV-17" target="gxW0V7j5sj3q8Cg6t1EV-22">
          <mxGeometry relative="1" as="geometry" />
        </mxCell>
        <mxCell id="gxW0V7j5sj3q8Cg6t1EV-29" style="edgeStyle=orthogonalEdgeStyle;rounded=0;orthogonalLoop=1;jettySize=auto;html=1;exitX=0.5;exitY=1;exitDx=0;exitDy=0;entryX=0.5;entryY=0.067;entryDx=0;entryDy=0;entryPerimeter=0;shadow=1;strokeWidth=2;" edge="1" parent="1" source="gxW0V7j5sj3q8Cg6t1EV-18" target="gxW0V7j5sj3q8Cg6t1EV-23">
          <mxGeometry relative="1" as="geometry" />
        </mxCell>
        <mxCell id="gxW0V7j5sj3q8Cg6t1EV-41" style="edgeStyle=orthogonalEdgeStyle;rounded=0;orthogonalLoop=1;jettySize=auto;html=1;exitX=0.5;exitY=1;exitDx=0;exitDy=0;" edge="1" parent="1" source="gxW0V7j5sj3q8Cg6t1EV-1" target="gxW0V7j5sj3q8Cg6t1EV-1">
          <mxGeometry relative="1" as="geometry" />
        </mxCell>
        <mxCell id="gxW0V7j5sj3q8Cg6t1EV-69" style="edgeStyle=none;rounded=0;orthogonalLoop=1;jettySize=auto;html=1;exitX=1;exitY=0.5;exitDx=0;exitDy=0;entryX=0;entryY=0.5;entryDx=0;entryDy=0;" edge="1" parent="1" source="gxW0V7j5sj3q8Cg6t1EV-66" target="gxW0V7j5sj3q8Cg6t1EV-4">
          <mxGeometry relative="1" as="geometry" />
        </mxCell>
        <mxCell id="gxW0V7j5sj3q8Cg6t1EV-74" style="edgeStyle=none;rounded=0;orthogonalLoop=1;jettySize=auto;html=1;exitX=1;exitY=0.5;exitDx=0;exitDy=0;entryX=0;entryY=0.5;entryDx=0;entryDy=0;" edge="1" parent="1" source="gxW0V7j5sj3q8Cg6t1EV-66" target="gxW0V7j5sj3q8Cg6t1EV-6">
          <mxGeometry relative="1" as="geometry" />
        </mxCell>
        <mxCell id="gxW0V7j5sj3q8Cg6t1EV-76" style="edgeStyle=none;rounded=0;orthogonalLoop=1;jettySize=auto;html=1;exitX=1;exitY=0.5;exitDx=0;exitDy=0;entryX=0;entryY=0.5;entryDx=0;entryDy=0;" edge="1" parent="1" source="gxW0V7j5sj3q8Cg6t1EV-66" target="gxW0V7j5sj3q8Cg6t1EV-5">
          <mxGeometry relative="1" as="geometry" />
        </mxCell>
        <mxCell id="gxW0V7j5sj3q8Cg6t1EV-80" style="edgeStyle=none;rounded=0;orthogonalLoop=1;jettySize=auto;html=1;exitX=1;exitY=0.5;exitDx=0;exitDy=0;entryX=0;entryY=0.5;entryDx=0;entryDy=0;" edge="1" parent="1" source="gxW0V7j5sj3q8Cg6t1EV-66" target="gxW0V7j5sj3q8Cg6t1EV-7">
          <mxGeometry relative="1" as="geometry" />
        </mxCell>
        <mxCell id="gxW0V7j5sj3q8Cg6t1EV-66" value="" style="ellipse;whiteSpace=wrap;html=1;aspect=fixed;fillColor=#dae8fc;strokeColor=#6c8ebf;shadow=1;" vertex="1" parent="1">
          <mxGeometry x="80" y="240" width="80" height="80" as="geometry" />
        </mxCell>
        <mxCell id="gxW0V7j5sj3q8Cg6t1EV-70" style="edgeStyle=none;rounded=0;orthogonalLoop=1;jettySize=auto;html=1;exitX=1;exitY=0.5;exitDx=0;exitDy=0;" edge="1" parent="1" source="gxW0V7j5sj3q8Cg6t1EV-67">
          <mxGeometry relative="1" as="geometry">
            <mxPoint x="200" y="80" as="targetPoint" />
          </mxGeometry>
        </mxCell>
        <mxCell id="gxW0V7j5sj3q8Cg6t1EV-75" style="edgeStyle=none;rounded=0;orthogonalLoop=1;jettySize=auto;html=1;exitX=1;exitY=0.5;exitDx=0;exitDy=0;entryX=0;entryY=0.5;entryDx=0;entryDy=0;" edge="1" parent="1" source="gxW0V7j5sj3q8Cg6t1EV-67" target="gxW0V7j5sj3q8Cg6t1EV-6">
          <mxGeometry relative="1" as="geometry" />
        </mxCell>
        <mxCell id="gxW0V7j5sj3q8Cg6t1EV-78" style="edgeStyle=none;rounded=0;orthogonalLoop=1;jettySize=auto;html=1;exitX=1;exitY=0.5;exitDx=0;exitDy=0;" edge="1" parent="1" source="gxW0V7j5sj3q8Cg6t1EV-67">
          <mxGeometry relative="1" as="geometry">
            <mxPoint x="200" y="360" as="targetPoint" />
          </mxGeometry>
        </mxCell>
        <mxCell id="gxW0V7j5sj3q8Cg6t1EV-81" style="edgeStyle=none;rounded=0;orthogonalLoop=1;jettySize=auto;html=1;exitX=1;exitY=0.5;exitDx=0;exitDy=0;" edge="1" parent="1" source="gxW0V7j5sj3q8Cg6t1EV-67">
          <mxGeometry relative="1" as="geometry">
            <mxPoint x="200" y="480" as="targetPoint" />
          </mxGeometry>
        </mxCell>
        <mxCell id="gxW0V7j5sj3q8Cg6t1EV-67" value="" style="ellipse;whiteSpace=wrap;html=1;aspect=fixed;fillColor=#dae8fc;strokeColor=#6c8ebf;shadow=1;" vertex="1" parent="1">
          <mxGeometry x="80" y="360" width="80" height="80" as="geometry" />
        </mxCell>
      </root>
    </mxGraphModel>
  </diagram>
</mxfile>
